<svg id="Logo" xmlns="http://www.w3.org/2000/svg" viewBox="0 0 451.41 150"><path d="M204.71,182.34h10.94v36.33q0,7.07-3.91,11.36a13.15,13.15,0,0,1-10.23,4.3,13.29,13.29,0,0,1-8.18-2.7,16.87,16.87,0,0,1-5.57-8.24l8.05-6.09v.16a12.37,12.37,0,0,1,.78,1.71,13,13,0,0,0,1.77,3,3,3,0,0,0,2.33,1.35,3.45,3.45,0,0,0,2.93-1.52,6.84,6.84,0,0,0,1.09-4.07Z" transform="translate(-29.86 -175)" fill="#fff"/><path d="M226.12,182.34H255v10.15H237.17v10.36H255v10H237.17v10.62H255v10.16H226.12Z" transform="translate(-29.86 -175)" fill="#fff"/><path d="M264.59,182.34h11v40.23h15.12v11.06h-26.1Z" transform="translate(-29.86 -175)" fill="#fff"/><path d="M316.31,182.34h8.56l20.9,51.29H334.64l-4.1-10.08H310.85l-4,10.08H295.77Zm4.28,16.79-6,15.12h12.19Z" transform="translate(-29.86 -175)" fill="#fff"/><path d="M366.35,182.34h10.94v36.33q0,7.07-3.91,11.36a13.15,13.15,0,0,1-10.23,4.3,13.29,13.29,0,0,1-8.18-2.7,16.87,16.87,0,0,1-5.57-8.24l8.05-6.09v.16a12.37,12.37,0,0,1,.78,1.71,13,13,0,0,0,1.77,3,3,3,0,0,0,2.33,1.35,3.45,3.45,0,0,0,2.93-1.52,6.84,6.84,0,0,0,1.09-4.07Z" transform="translate(-29.86 -175)" fill="#fff"/><path d="M403.89,182.34h8.56l20.89,51.29H422.22l-4.11-10.08H398.43l-4,10.08H383.34Zm4.28,16.79-6,15.12h12.19Z" transform="translate(-29.86 -175)" fill="#fff"/><path d="M441,182.34h11.06V202.1h18.16V182.34h11v51.29h-11V213.24H452.06v20.39H441Z" transform="translate(-29.86 -175)" fill="#fff"/><path d="M241,268l-5,5a24.47,24.47,0,0,0-17.62-7.46,20.11,20.11,0,0,0-14.57,5.62,19.16,19.16,0,0,0-.18,27.33q5.64,5.93,15.57,5.92,14.88,0,18.71-12.93H224.46v-6.8h21.21a39.1,39.1,0,0,1-.68,8.15,25.26,25.26,0,0,1-8.56,13.28,22.42,22.42,0,0,1-7.65,4.16,33.62,33.62,0,0,1-9.75,1.25q-12.89,0-20.56-8.1a26.18,26.18,0,0,1-7.68-18.53,25.21,25.21,0,0,1,7.85-18.67,26.17,26.17,0,0,1,19-7.71,35,35,0,0,1,12.12,2A33.11,33.11,0,0,1,241,268Z" transform="translate(-29.86 -175)" fill="#fff"/><path d="M273.19,258.11l23.5,51.68h-7.12l-5.78-12.74H262.67L257,309.79h-7.07Zm0,15.53-8,17.75h16Z" transform="translate(-29.86 -175)" fill="#fff"/><path d="M344,258l13.62,51.84H351l-8.23-31.67L328.54,311.7l-14.22-33.86-8.35,32h-6.63L313,258,328.54,295Z" transform="translate(-29.86 -175)" fill="#fff"/><path d="M364.07,260h27.58v6.8H370.79v12.42h20.86V286H370.79v17.11h20.86v6.72H364.07Z" transform="translate(-29.86 -175)" fill="#fff"/><polygon points="112.47 86.27 101.78 74.03 94.81 91.69 109.95 91.69 112.47 86.27" fill="#fff"/><path d="M171.25,175H38.47a8.63,8.63,0,0,0-8.61,8.61V316.39A8.63,8.63,0,0,0,38.47,325H171.25a8.63,8.63,0,0,0,8.61-8.61V183.61A8.63,8.63,0,0,0,171.25,175ZM33.14,284.46l11.77-26.2H66.43l18-42.68H84l.62-.27-.11.27,28.58,0-28.7,69.15ZM169.4,236.08H136.74L131.64,249h38.63L156.1,284.69H91.66l28.07-69.38h56.85Z" transform="translate(-29.86 -175)" fill="#fff"/></svg>