<svg id="Layer_4" data-name="Layer 4" xmlns="http://www.w3.org/2000/svg" viewBox="0 0 443.05 47.25"><path d="M42.6,225.37h9.62V257.3q0,6.21-3.44,10a11.57,11.57,0,0,1-9,3.78,11.74,11.74,0,0,1-7.2-2.37,15,15,0,0,1-4.89-7.25l7.07-5.35v.13a10.64,10.64,0,0,1,.69,1.52A11.14,11.14,0,0,0,37,260.41a2.64,2.64,0,0,0,2,1.18,3,3,0,0,0,2.57-1.34,6,6,0,0,0,1-3.57Z" transform="translate(-27.7 -224.89)" fill="#fff"/><path d="M61.42,225.37H86.79v8.92H71.14v9.1H86.79v8.79H71.14v9.34H86.79v8.93H61.42Z" transform="translate(-27.7 -224.89)" fill="#fff"/><path d="M95.24,225.37h9.65v35.36h13.29v9.72H95.24Z" transform="translate(-27.7 -224.89)" fill="#fff"/><path d="M140.69,225.37h7.53l18.37,45.08h-9.78l-3.61-8.86H135.9l-3.53,8.86h-9.73Zm3.77,14.76-5.3,13.29h10.71Z" transform="translate(-27.7 -224.89)" fill="#fff"/><path d="M184.68,225.37h9.62V257.3q0,6.21-3.44,10a11.57,11.57,0,0,1-9,3.78,11.74,11.74,0,0,1-7.2-2.37,15,15,0,0,1-4.89-7.25l7.07-5.35v.13a10.64,10.64,0,0,1,.69,1.52,11.14,11.14,0,0,0,1.56,2.66,2.64,2.64,0,0,0,2.05,1.18,3,3,0,0,0,2.57-1.34,6,6,0,0,0,1-3.57Z" transform="translate(-27.7 -224.89)" fill="#fff"/><path d="M217.67,225.37h7.53l18.37,45.08h-9.78l-3.61-8.86h-17.3l-3.53,8.86h-9.73Zm3.77,14.76-5.3,13.29h10.71Z" transform="translate(-27.7 -224.89)" fill="#fff"/><path d="M250.3,225.37H260v17.37h16V225.37h9.72v45.08H276V252.53H260v17.92H250.3Z" transform="translate(-27.7 -224.89)" fill="#fff"/><path d="M338.36,233.71l-4.43,4.36a21.51,21.51,0,0,0-15.49-6.56,17.72,17.72,0,0,0-12.81,4.94,16.85,16.85,0,0,0-.15,24q5,5.2,13.68,5.2,13.08,0,16.45-11.37H323.8v-6h18.64a34,34,0,0,1-.6,7.16,21,21,0,0,1-2.49,5.9,21.23,21.23,0,0,1-5,5.78,19.8,19.8,0,0,1-6.73,3.65,29.52,29.52,0,0,1-8.56,1.1q-11.34,0-18.08-7.12a23,23,0,0,1-6.75-16.28,22.16,22.16,0,0,1,6.9-16.42,23,23,0,0,1,16.72-6.78,30.72,30.72,0,0,1,10.66,1.77A29.19,29.19,0,0,1,338.36,233.71Z" transform="translate(-27.7 -224.89)" fill="#fff"/><path d="M366.63,225l20.65,45.43H381L376,259.26H357.38l-5,11.19h-6.22Zm0,13.66-7,15.6h14.07Z" transform="translate(-27.7 -224.89)" fill="#fff"/><path d="M428.88,224.89l12,45.56H435l-7.24-27.84-12.47,29.52-12.5-29.76-7.34,28.08h-5.82l12-45.56,13.7,32.6Z" transform="translate(-27.7 -224.89)" fill="#fff"/><path d="M446.51,226.71h24.24v6H452.42V243.6h18.33v5.91H452.42v15h18.33v5.91H446.51Z" transform="translate(-27.7 -224.89)" fill="#fff"/></svg>